<?xml version="1.0" encoding="UTF-8" standalone="no"?>
<svg xmlns:ffdec="https://www.free-decompiler.com/flash" xmlns:xlink="http://www.w3.org/1999/xlink" ffdec:objectType="shape" height="16.0px" width="95.25px" xmlns="http://www.w3.org/2000/svg">
  <g transform="matrix(1.0, 0.0, 0.0, 1.0, -3.3, -0.35)">
    <path d="M78.75 8.1 L78.75 9.15 73.75 9.15 73.75 9.1 6.25 9.1 6.25 9.15 3.3 9.15 3.3 8.1 78.75 8.1 M82.55 16.35 L82.55 0.35 98.55 0.35 98.55 16.35 82.55 16.35 M83.55 15.35 L97.55 15.35 97.55 1.35 83.55 1.35 83.55 15.35 M93.5 6.4 L93.75 6.65 93.7 6.8 93.7 6.85 90.7 10.25 90.55 10.3 90.35 10.25 87.4 6.85 87.35 6.65 Q87.35 6.4 87.6 6.4 L93.5 6.4" fill="#d4d0d8" fill-rule="evenodd" stroke="none"/>
  </g>
</svg>
